<svg width="32" height="32" viewBox="0 0 32 32" fill="none" xmlns="http://www.w3.org/2000/svg">
<g id="payment-02">
<path id="Vector" d="M2.66675 5C2.11447 5 1.66675 5.44772 1.66675 6C1.66675 6.55228 2.11447 7 2.66675 7V5ZM17.9597 12.0404C18.3502 12.431 18.9833 12.431 19.3738 12.0404C19.7643 11.6499 19.7643 11.0167 19.3738 10.6262L17.9597 12.0404ZM2.66675 7H11.6766V5H2.66675V7ZM13.7978 7.87868L17.9597 12.0404L19.3738 10.6262L15.2121 6.46447L13.7978 7.87868ZM11.6766 7C12.4722 7 13.2353 7.31607 13.7978 7.87868L15.2121 6.46447C14.2743 5.52679 13.0026 5 11.6766 5V7Z" fill="white"/>
<path id="Vector_2" d="M6.66675 18H2.66675" stroke="white" stroke-width="1.5" stroke-linecap="round" stroke-linejoin="round"/>
<path id="Vector_3" d="M12.0403 9.29289C11.6498 8.90237 11.0166 8.90237 10.6261 9.29289C10.2356 9.68341 10.2356 10.3166 10.6261 10.7071L12.0403 9.29289ZM9.33323 13.3333L10.0403 12.6262C9.64982 12.2357 9.01664 12.2357 8.62612 12.6262L9.33323 13.3333ZM5.26656 12.5333C4.82474 12.202 4.19794 12.2915 3.86656 12.7333C3.53519 13.1752 3.62474 13.802 4.06656 14.1333L5.26656 12.5333ZM10.6261 10.7071L13.2928 13.3737L14.707 11.9596L12.0403 9.29289L10.6261 10.7071ZM12.0403 14.6263L10.0403 12.6262L8.62612 14.0404L10.6261 16.0404L12.0403 14.6263ZM5.67048 12.8363L5.26656 12.5333L4.06656 14.1333L4.47048 14.4363L5.67048 12.8363ZM8.62612 12.6262C7.83043 13.4219 6.57072 13.5115 5.67048 12.8363L4.47048 14.4363C6.16696 15.7087 8.54086 15.5399 10.0403 14.0404L8.62612 12.6262ZM13.2928 14.6263C12.9469 14.9721 12.3862 14.9721 12.0403 14.6263L10.6261 16.0404C11.753 17.1673 13.5802 17.1673 14.707 16.0404L13.2928 14.6263ZM13.2928 13.3737C13.6387 13.7196 13.6387 14.2804 13.2928 14.6263L14.707 16.0404C15.8339 14.9136 15.8339 13.0865 14.707 11.9596L13.2928 13.3737Z" fill="white"/>
<path id="Vector_4" d="M6.66675 14.6666V20.6666C6.66675 23.1808 6.66675 24.4378 7.4478 25.2189C8.22884 26 9.48592 26 12.0001 26H24.0001C26.5142 26 27.7713 26 28.5523 25.2189C29.3334 24.4378 29.3334 23.1808 29.3334 20.6666V16.6666C29.3334 14.1525 29.3334 12.8954 28.5523 12.1144C27.7713 11.3333 26.5142 11.3333 24.0001 11.3333H12.6667" stroke="white" stroke-width="1.5" stroke-linecap="round" stroke-linejoin="round"/>
<path id="Vector_5" d="M20.3334 18.6666C20.3334 19.9553 19.2887 21 18.0001 21C16.7114 21 15.6667 19.9553 15.6667 18.6666C15.6667 17.378 16.7114 16.3333 18.0001 16.3333C19.2887 16.3333 20.3334 17.378 20.3334 18.6666Z" stroke="white" stroke-width="1.5" stroke-linecap="round" stroke-linejoin="round"/>
</g>
</svg>
