<svg width="22" height="23" viewBox="0 0 22 23" fill="none" xmlns="http://www.w3.org/2000/svg">
<g id="Group 2">
<path id="Vector" d="M2.87289 16.5194L1.66933 9.33981C1.48735 8.25428 1.39637 7.71152 1.68773 7.35576C1.9791 7 2.51461 7 3.58564 7H18.4144C19.4854 7 20.0209 7 20.3123 7.35576C20.6036 7.71152 20.5126 8.25428 20.3307 9.33981L19.1271 16.5194C18.7282 18.8991 18.5287 20.0889 17.7143 20.7945C16.9 21.5 15.726 21.5 13.3782 21.5H8.62182C6.27396 21.5 5.10003 21.5 4.28565 20.7945C3.47127 20.0889 3.27181 18.8991 2.87289 16.5194Z" stroke="#1D1D1D" stroke-width="1.5"/>
<path id="Vector_2" d="M16.5 7C16.5 3.96243 14.0376 1.5 11 1.5C7.96243 1.5 5.5 3.96243 5.5 7" stroke="#1D1D1D" stroke-width="1.5"/>
</g>
</svg>
